<svg xmlns="http://www.w3.org/2000/svg" xmlns:xlink="http://www.w3.org/1999/xlink" viewBox="0 0 2303.11 2000" class="bubble-hero" aria-hidden="true">
  <defs>
    <linearGradient id="Bubble_Hero_3" data-name="Bubble_Hero 3" x1="1221.51" y1="1672.84" x2="1098.84" y2="278.14" gradientUnits="userSpaceOnUse">
      <stop offset="0" stop-color="#0cf"/>
      <stop offset="1" stop-color="#0e10f4"/>
    </linearGradient>
    <linearGradient id="Bubble_Hero_3-2" x1="2308.48" y1="1143.67" x2="307.79" y2="1596.78" xlink:href="#Bubble_Hero_3"/>
    <linearGradient id="Bubble_Hero_4" data-name="Bubble_Hero 4" x1="65.54" y1="802.21" x2="2009.71" y2="420.96" xlink:href="#Bubble_Hero_3"/>
  </defs>
  <g id="bubble-arrows">
    <circle id="bubble" class="bub-arr-1" cx="1162.33" cy="1000" r="700"/>
    <path id="arrow1" class="bub-arr-2" d="M2303.11,838,2126,732,1920.85,609.15,1826.58,778.6,1704.24,998.49l156.75-42q1.32,21.6,1.34,43.52c0,386.6-313.4,700-700,700-329.16,0-605.26-227.2-680-533.33l-100,179.8L189.12,1230.84C293.33,1671.83,689.5,2000,1162.33,2000c552.28,0,1000-447.72,1000-1000a1009,1009,0,0,0-7.42-122.27Z"/>
    <path id="arrow2" class="bub-arr-3" d="M1162.33,0c-552.28,0-1000,447.72-1000,1000q0,37,2.67,73.4L0,1117.61l189.12,113.23,193.14,115.63,100-179.8L598.87,957.14l-136.5,36.58C465.75,610,777.83,300,1162.33,300c309.22,0,571.6,200.51,664.25,478.6l94.27-169.45L2126,732C2008.82,309.84,1621.77,0,1162.33,0Z"/>
  </g>
</svg>
