<svg xmlns="http://www.w3.org/2000/svg" viewBox="0 0 1950 1870" class="illustration-telescope" aria-hidden="true">
  <defs>
  </defs>
  <g id="illustration-telescope">
    <g id="telescope">
      <g id="top">
        <path class="ill-tel-1" d="M777,860.19s30.66,13.06,57.38,59.22,22.76,79.26,22.76,79.26"/>
        <rect class="ill-tel-2" x="255.11" y="1179.96" width="120" height="80" transform="translate(-568.71 321.93) rotate(-30.06)"/>
        <rect class="ill-tel-2" x="169.6" y="1259.93" width="50" height="33.06" transform="translate(-1.34 0.21) rotate(-0.06)"/>
        <rect class="ill-tel-3" x="348.38" y="1144.91" width="20" height="100" transform="translate(-550.34 340.24) rotate(-30.06)"/>
        <rect class="ill-tel-2" x="349.55" y="1064.79" width="260" height="120" transform="translate(-498.92 391.5) rotate(-30.06)"/>
        <rect class="ill-tel-3" x="573.41" y="994.68" width="20" height="140" transform="matrix(0.87, -0.5, 0.5, 0.87, -454.84, 435.44)"/>
        <polygon class="ill-tel-2" points="548.32 1223.64 513.7 1243.67 466.33 1201.76 535.57 1161.69 548.32 1223.64"/>
        <rect class="ill-tel-2" x="575.09" y="916.45" width="252.41" height="160" transform="translate(-404.81 485.31) rotate(-30.06)"/>
        <rect class="ill-tel-2" x="779.79" y="849.45" width="40" height="180" transform="translate(-363.01 526.98) rotate(-30.06)"/>
        <polygon class="ill-tel-2" points="215.86 1247.32 215.92 1304.17 278.21 1275.98 248.15 1224.05 215.86 1247.32"/>
        <line class="ill-tel-1" x1="374.33" y1="1162.58" x2="547.43" y2="1062.39"/>
        <line class="ill-tel-1" x1="280.49" y1="1240" x2="332.42" y2="1209.94"/>
        <line class="ill-tel-1" x1="589.34" y1="1015.03" x2="745.13" y2="924.87"/>
      </g>
      <g id="bottom">
        <g>
          <polygon class="ill-tel-2" points="757.34 1675.69 508.68 1265 543.32 1245 774.66 1665.69 757.34 1675.69"/>
          <path class="ill-tel-2" d="M746,1685s0-20,20-20,20,20,20,20Z"/>
        </g>
        <g>
          <polygon class="ill-tel-2" points="277.34 1665.69 508.68 1245 543.32 1265 294.66 1675.69 277.34 1665.69"/>
          <path class="ill-tel-2" d="M266,1685s0-20,20-20,20,20,20,20Z"/>
        </g>
        <g>
          <polygon class="ill-tel-2" points="516 1735 506 1255 546 1255 536 1735 516 1735"/>
          <path class="ill-tel-2" d="M506,1735s0-20,20-20,20,20,20,20Z"/>
        </g>
        <polygon class="ill-tel-2" points="506 1215 546 1215 566 1275 486 1275 506 1215"/>
        <circle class="ill-tel-3" cx="526" cy="1225" r="30"/>
        <circle class="ill-tel-2" cx="526" cy="1225" r="8.28"/>
        <rect class="ill-tel-3" x="516" y="1225" width="20" height="120" transform="translate(1811 759) rotate(90)"/>
      </g>
    </g>
    <path id="cloud1" class="ill-tel-3" d="M195.57,1022a27.47,27.47,0,0,0-10.6,2.12,40.82,40.82,0,0,0-71.32,1.07,30,30,0,1,0,3.51,44,40.79,40.79,0,0,0,62.5,2.88A27.58,27.58,0,1,0,195.57,1022Z"/>
    <path id="cloud2" class="ill-tel-3" d="M1389.06,990.34a40.76,40.76,0,0,0-16.72,3.58,56.87,56.87,0,0,0-84.77-25.53,67.22,67.22,0,0,0-117.42,8.47,51.87,51.87,0,1,0,12.9,75,67.18,67.18,0,0,0,94.54,1.74,56.88,56.88,0,0,0,80.12,4,40.94,40.94,0,1,0,31.35-67.27Z"/>
    <path id="cloud3" class="ill-tel-3" d="M1817.14,1066.71a46.83,46.83,0,0,0-7.35.59,58.17,58.17,0,0,0-101.21,8.94,41.42,41.42,0,0,0-21.26,1.4,50.75,50.75,0,0,0-89.37,14.08,40.25,40.25,0,1,0,5.8,43.48,50.76,50.76,0,0,0,71.2,14.06,41.33,41.33,0,0,0,53.27-1.69,58.13,58.13,0,0,0,63,2.54,45.73,45.73,0,1,0,25.92-83.4Z"/>
    <g id="stars">
      <path class="ill-tel-3" d="M685,365a60,60,0,0,0-60-60,60,60,0,0,0,60-60,60,60,0,0,0,60,60,60,60,0,0,0-60,60"/>
      <path class="ill-tel-3" d="M980,541.14a60,60,0,0,0-60-60,60,60,0,0,0,60-60,60,60,0,0,0,60,60,60,60,0,0,0-60,60"/>
      <path class="ill-tel-2" d="M265,625a60,60,0,0,0-60-60,60,60,0,0,0,60-60,60,60,0,0,0,60,60,60,60,0,0,0-60,60"/>
      <path class="ill-tel-3" d="M265,185a60,60,0,0,0-60-60,60,60,0,0,0,60-60,60,60,0,0,0,60,60,60,60,0,0,0-60,60"/>
      <path class="ill-tel-3" d="M1185,145a60,60,0,0,0-60-60,60,60,0,0,0,60-60,60,60,0,0,0,60,60,60,60,0,0,0-60,60"/>
      <path class="ill-tel-2" d="M1823.57,605a60,60,0,0,0-60-60,60,60,0,0,0,60-60,60,60,0,0,0,60,60,60,60,0,0,0-60,60"/>
      <path class="ill-tel-1" d="M570.71,534.36l-12.85,15.32m26.53,8.37-19.69,3.48M579.64,585l-17.32-10m-3.64,27.59-6.84-18.8m-20.52,18.8,6.84-18.8M527.68,575l-17.32,10m14.94-23.47-19.69-3.48m13.68-23.69,12.85,15.32M545,525v20"/>
      <path class="ill-tel-4" d="M1510.71,654.36l-12.85,15.32m26.53,8.37-19.69,3.48M1519.64,705l-17.32-10m-3.64,27.59-6.84-18.8m-13.68,0-6.84,18.8m-21-17.59,17.32-10m-22.07-17,19.69,3.48m-6-27.17,12.85,15.32M1485,645v20"/>
      <path class="ill-tel-1" d="M190.71,814.36l-12.85,15.32m26.53,8.37-19.69,3.48M199.64,865l-17.32-10m-3.64,27.59-6.84-18.8m-20.52,18.8,6.84-18.8M130.36,865l17.32-10m-22.07-17,19.69,3.48m-6-27.17,12.85,15.32M165,805v20"/>
      <path class="ill-tel-4" d="M950.71,94.36l-12.85,15.32m6.84,11.85,19.69-3.48m-4.75,27-17.32-10m-3.64,27.59-6.84-18.8m-20.52,18.8,6.84-18.8M890.36,145l17.32-10m-22.07-17,19.69,3.48m-6-27.17,12.85,15.32M925,85v20"/>
      <path class="ill-tel-1" d="M573.53,35.73l-14.26,4.63m-5.45,16.78,8.81,12.13m-35.26,0,8.81-12.13M516.47,35.73l14.26,4.63M545,15V30"/>
      <path class="ill-tel-1" d="M1850.71,14.36l-12.85,15.32m26.53,8.37-19.69,3.48M1842.32,55l17.32,10m-21,17.59-6.84-18.8m-13.68,0-6.84,18.8m-21-17.59,17.32-10m-2.38-13.47-19.69-3.48m13.68-23.69,12.85,15.32M1825,5V25"/>
      <path class="ill-tel-4" d="M119.27,310.36l14.26-4.63m-10.9,33.54-8.81-12.13M87.37,339.27l8.81-12.13M76.47,305.73l14.26,4.63M105,285v15"/>
      <path class="ill-tel-4" d="M1008.53,746.68l-14.26,4.64m-5.45,16.77,8.81,12.13m-35.26,0,8.81-12.13m-5.45-16.77-14.26-4.64M980,726v15"/>
      <path class="ill-tel-1" d="M1329.13,558.23l-14.26,4.63m3.36,28.91-8.81-12.13M1283,591.77l8.81-12.13m-19.71-21.41,14.27,4.63m14.26-25.36v15"/>
      <path class="ill-tel-1" d="M904.27,1122.85l14.26-4.64m-10.9,33.55-8.81-12.14m-26.45,12.14,8.81-12.14m-19.71-21.41,14.26,4.64M890,1097.49v15"/>
    </g>
    <g id="mountains">
      <polyline class="ill-tel-4" points="1925 1370.74 1905 1382.29 1705 1220.63 1625 1220.63 1445 1324.56 1365 1324.56"/>
      <polyline class="ill-tel-4" points="1525 1416.93 1465 1382.29 1385 1382.29 1225 1289.92 1185 1289.92 1105 1243.73 1025 1243.73 825 1405.39 745 1405.39 665.83 1381.81"/>
      <polyline class="ill-tel-4" points="5 1370.74 145 1428.48 225 1382.29 385 1382.29"/>
    </g>
    <g id="trees">
      <path class="ill-tel-1" d="M1818.33,1531.67a46.67,46.67,0,1,0-46.66,46.66V1625"/>
      <path class="ill-tel-1" d="M1505,1485a40,40,0,1,1,40,40v40"/>
      <path class="ill-tel-1" d="M1598.33,1351.67a26.67,26.67,0,1,0-26.66,26.66V1405"/>
      <path class="ill-tel-1" d="M1771.67,1378.33a33.34,33.34,0,1,0-33.34,33.34V1445"/>
      <polyline class="ill-tel-1" points="1865 1450 1830 1362.5 1795 1450 1830 1450 1830 1485"/>
      <polyline class="ill-tel-1" points="1682.14 1356.43 1653.57 1285 1625 1356.43 1653.57 1356.43 1653.57 1385"/>
      <polyline class="ill-tel-1" points="1945 1539.29 1899.29 1425 1853.57 1539.29 1899.29 1539.29 1899.29 1585"/>
      <polyline class="ill-tel-1" points="1476.43 1559.29 1430.71 1445 1385 1559.29 1430.71 1559.29 1430.71 1605"/>
      <polyline class="ill-tel-1" points="1685 1525 1645 1425 1605 1525 1645 1525 1645 1565"/>
      <path class="ill-tel-1" d="M1385,1445a40,40,0,1,0-40,40v40"/>
      <path class="ill-tel-1" d="M1225,1380.13a32.44,32.44,0,1,1,32.44,32.43V1445"/>
    </g>
    <g id="grass">
      <g>
        <polyline class="ill-tel-1" points="1031.67 1845 965 1725 1085 1845"/>
        <polyline class="ill-tel-1" points="1138.33 1865 1165 1565 1191.67 1825"/>
        <polyline class="ill-tel-1" points="1245 1845 1225 1625 1191.67 1825"/>
        <polyline class="ill-tel-1" points="1245 1845 1325 1738.33 1298.33 1825"/>
        <polyline class="ill-tel-1" points="1138.33 1865 1045 1645 1085 1845"/>
      </g>
      <line class="ill-tel-3" x1="1785" y1="1805" x2="1785" y2="1785"/>
      <line class="ill-tel-3" x1="1765" y1="1805" x2="1765" y2="1785"/>
      <line class="ill-tel-3" x1="1745" y1="1785" x2="1745" y2="1765"/>
      <line class="ill-tel-3" x1="1725" y1="1785" x2="1725" y2="1765"/>
      <line class="ill-tel-3" x1="1685" y1="1765" x2="1685" y2="1745"/>
      <line class="ill-tel-3" x1="1665" y1="1785" x2="1665" y2="1765"/>
      <line class="ill-tel-3" x1="1645" y1="1765" x2="1645" y2="1745"/>
      <line class="ill-tel-3" x1="1625" y1="1785" x2="1625" y2="1765"/>
      <line class="ill-tel-3" x1="1585" y1="1785" x2="1585" y2="1765"/>
      <line class="ill-tel-3" x1="1565" y1="1805" x2="1565" y2="1785"/>
      <line class="ill-tel-3" x1="1545" y1="1805" x2="1545" y2="1785"/>
      <line class="ill-tel-3" x1="1485" y1="1805" x2="1485" y2="1785"/>
      <line class="ill-tel-3" x1="1465" y1="1805" x2="1465" y2="1785"/>
      <line class="ill-tel-3" x1="1445" y1="1825" x2="1445" y2="1805"/>
      <line class="ill-tel-3" x1="1405" y1="1825" x2="1405" y2="1805"/>
      <line class="ill-tel-3" x1="1385" y1="1825" x2="1385" y2="1805"/>
      <line class="ill-tel-3" x1="65" y1="1805" x2="65" y2="1785"/>
      <line class="ill-tel-3" x1="105" y1="1825" x2="105" y2="1805"/>
      <line class="ill-tel-3" x1="125" y1="1825" x2="125" y2="1805"/>
      <line class="ill-tel-3" x1="145" y1="1805" x2="145" y2="1785"/>
      <line class="ill-tel-3" x1="185" y1="1845" x2="185" y2="1825"/>
      <line class="ill-tel-3" x1="205" y1="1825" x2="205" y2="1805"/>
      <line class="ill-tel-3" x1="225" y1="1845" x2="225" y2="1825"/>
      <line class="ill-tel-3" x1="265" y1="1825" x2="265" y2="1805"/>
      <line class="ill-tel-3" x1="285" y1="1825" x2="285" y2="1805"/>
      <line class="ill-tel-3" x1="305" y1="1825" x2="305" y2="1805"/>
      <line class="ill-tel-3" x1="345" y1="1805" x2="345" y2="1785"/>
      <line class="ill-tel-3" x1="365" y1="1805" x2="365" y2="1785"/>
      <line class="ill-tel-3" x1="945" y1="1845" x2="945" y2="1825"/>
      <line class="ill-tel-3" x1="925" y1="1845" x2="925" y2="1825"/>
      <line class="ill-tel-3" x1="905" y1="1825" x2="905" y2="1805"/>
      <line class="ill-tel-3" x1="885" y1="1845" x2="885" y2="1825"/>
    </g>
    <g id="moon">
      <circle class="ill-tel-2" cx="1595" cy="295" r="170"/>
      <circle class="ill-tel-3" cx="1685" cy="285" r="40"/>
      <path class="ill-tel-3" d="M1584.26,326.46a50,50,0,1,0-26.52,53.07"/>
      <path class="ill-tel-3" d="M1639.92,231.71a30,30,0,1,0-34.84,11.6"/>
    </g>
  </g>
</svg>
