<svg xmlns="http://www.w3.org/2000/svg" xmlns:xlink="http://www.w3.org/1999/xlink" viewBox="0 0 800 800" class="icon icon-app-cv" style="display:none" aria-hidden="true">
  <g id="icon-app-cv">
    <circle id="background" class="app-cv-1" cx="400" cy="400" r="400"/>
    <path id="shoe-background" class="app-cv-2" d="M163.85,560c141.25,9.65,185.9-37.71,301.47-69.67,70.3-19.44,135.06-25.33,189.32-50.88,58.4-27.49-3.36-73.74-5.81-105.32-5-64.3-30.66-92.45-45.28-94.13-8.74-1-43,40.25-97.08,44.64-12.35,1-38-30.31-57.55-38.64-17.56-7.5-26.87-2.2-73.88,66.38-21.27,31-107.3,115-147.62,135.85-43.53,22.54-95.87,26.38-104.26,59.86C117,532.79,123.63,557.25,163.85,560Z"/>
    <path id="line-sole" class="app-cv-3" d="M121.16,520.19c19,22.19,124.65,12.36,176.27-6.28,49.88-18,116.75-68.37,187.48-80.16s167.33-41,174.35-69.28"/>
    <path id="shoe-outline" class="app-cv-4" d="M163.85,560c141.25,9.65,185.9-37.71,301.47-69.67,70.3-19.44,135.06-25.33,189.32-50.88,58.4-27.49-3.36-73.74-5.81-105.32-5-64.3-30.66-92.45-45.28-94.13-8.74-1-43,40.25-97.08,44.64-12.35,1-38-30.31-57.55-38.64-17.56-7.5-26.87-2.2-73.88,66.38-21.27,31-107.3,115-147.62,135.85-43.53,22.54-95.87,26.38-104.26,59.86C117,532.79,123.63,557.25,163.85,560Z"/>
    <g id="laces">
      <line class="app-cv-5" x1="390.21" y1="276.92" x2="421.01" y2="312.29"/>
      <line class="app-cv-5" x1="363.84" y1="312.29" x2="388.73" y2="341.74"/>
      <line class="app-cv-5" x1="335.42" y1="345.96" x2="354.24" y2="369.81"/>
    </g>
  </g>
</svg>
