<svg xmlns="http://www.w3.org/2000/svg" viewBox="0 0 200 200" class="icon icon-xing-white" style="display:none" aria-hidden="true">
  <defs>
    <style>
      .foo-xin-1 { fill: white; }
      .foo-xin-2 { fill: #005a5f; }
      .foo-xin-3 { fill: #d4d600; }
    </style>
  </defs>
  <g id="icon-xing-white">
    <circle id="background" class="foo-xin-1" cx="100" cy="100" r="100"/>
    <g id="x">
      <path class="foo-xin-2" d="M45.73,59.38a3.31,3.31,0,0,0-3,1.36,3.37,3.37,0,0,0,.12,3.33L57.58,89.5a.09.09,0,0,1,0,.12L34.5,130.35a3.39,3.39,0,0,0,0,3.34,3.2,3.2,0,0,0,2.84,1.48H59.06c3.25,0,4.82-2.2,5.93-4.2L88.44,89.5c-.09-.14-14.93-26-14.93-26-1.09-1.93-2.72-4.08-6.05-4.08Z"/>
      <path class="foo-xin-3" d="M136.79,29.59c-3.25,0-4.65,2-5.81,4.13,0,0-46.74,82.88-48.28,85.6l30.83,56.55c1.07,1.92,2.73,4.13,6.06,4.13h21.66a3.19,3.19,0,0,0,2.88-1.39,3.36,3.36,0,0,0,0-3.35l-30.58-55.87a.14.14,0,0,1,0-.15l48-84.92a3.41,3.41,0,0,0,0-3.35,3.22,3.22,0,0,0-2.88-1.38H136.79Z"/>
    </g>
  </g>
</svg>
