<svg xmlns="http://www.w3.org/2000/svg" viewBox="0 0 200 200" class="icon icon-behance-white" style="display:none" aria-hidden="true">
  <defs>
    <style>
      .foo-beh-1 { fill: white; }
      .foo-beh-2 { fill: #1769ff; }
    </style>
  </defs>
  <g id="icon-behance-white">
    <circle id="background" class="foo-beh-1" cx="100" cy="100" r="100"/>
    <path id="be" class="foo-beh-2" d="M70.75,55a56.39,56.39,0,0,1,11.78,1.14,25.41,25.41,0,0,1,9.12,3.74,17.45,17.45,0,0,1,5.89,6.9,24.21,24.21,0,0,1,2.09,10.65,19.8,19.8,0,0,1-3.1,11.4,22.6,22.6,0,0,1-9.18,7.47q8.36,2.42,12.48,8.43a25.05,25.05,0,0,1,4.12,14.5,24.94,24.94,0,0,1-2.66,11.85,23,23,0,0,1-7.17,8.17,31.57,31.57,0,0,1-10.26,4.69A46.32,46.32,0,0,1,72,145.45H28.18V55ZM68.51,91.82a14.85,14.85,0,0,0,9-2.61q3.54-2.62,3.53-8.5a10.87,10.87,0,0,0-1.18-5.35,8.69,8.69,0,0,0-3.14-3.28,13.44,13.44,0,0,0-4.51-1.63,30.34,30.34,0,0,0-5.3-.45H47.73V91.36l20.38.46ZM69.16,130a26.38,26.38,0,0,0,5.61-.57,14,14,0,0,0,4.72-1.91,9.83,9.83,0,0,0,3.26-3.64A12.63,12.63,0,0,0,84,118c0-4.67-1.32-8-4-10s-6.12-3-10.46-3H47.73v24.55l21.53.45Zm59.71-2.2q4.11,4,11.81,4a16.29,16.29,0,0,0,9.49-2.76c2.65-1.84,4.28-3.78,4.87-5.84h16q-3.86,11.94-11.81,17.06T140,145.37a38.05,38.05,0,0,1-14.11-2.49,29.37,29.37,0,0,1-10.64-7.13,31.85,31.85,0,0,1-6.74-11,40.49,40.49,0,0,1-2.37-14.11,38.56,38.56,0,0,1,2.44-13.85,32.39,32.39,0,0,1,6.92-11.09,32.78,32.78,0,0,1,10.72-7.38A34.41,34.41,0,0,1,140,75.61a31.43,31.43,0,0,1,14.75,3.28,29.37,29.37,0,0,1,10.33,8.78A36.24,36.24,0,0,1,171,100.25,47.08,47.08,0,0,1,172.24,115H124.39q.39,8.82,4.48,12.8Zm20.49-34.56q-3.24-3.55-9.84-3.56a15.69,15.69,0,0,0-7.17,1.46,13.85,13.85,0,0,0-4.57,3.62,13.21,13.21,0,0,0-2.4,4.56,20.19,20.19,0,0,0-.83,4.32h29.32c-.85-4.56-2.36-8-4.51-10.4Zm-28-33.69h36.82v10H121.36Z"/>
  </g>
</svg>
