<svg xmlns="http://www.w3.org/2000/svg" viewBox="0 0 200 195.06" class="icon icon-github-white" style="display:none" aria-hidden="true">
  <defs>
    <style>
      .foo-git-1 {fill:#fff;fill-rule:evenodd;}
    </style>
  </defs>
  <g id="icon-github-white">
    <path id="icon-github-white" class="foo-git-1" d="M100,0a100,100,0,0,0-31.6,194.89c5,.92,6.82-2.17,6.82-4.82,0-2.37-.08-8.66-.13-17-27.82,6-33.69-13.41-33.69-13.41C36.85,148.1,30.29,145,30.29,145c-9.08-6.2.69-6.08.69-6.08,10,.7,15.31,10.31,15.31,10.31,8.92,15.28,23.41,10.86,29.11,8.3.91-6.46,3.49-10.86,6.35-13.36C59.54,141.67,36.2,133.09,36.2,94.77A38.64,38.64,0,0,1,46.49,67.94c-1-2.53-4.46-12.7,1-26.47,0,0,8.39-2.68,27.5,10.26a94.67,94.67,0,0,1,50.07,0c19.09-12.94,27.47-10.26,27.47-10.26,5.46,13.77,2,23.94,1,26.47a38.59,38.59,0,0,1,10.29,26.83c0,38.42-23.39,46.87-45.66,49.35,3.59,3.09,6.78,9.19,6.78,18.52,0,13.36-.12,24.15-.12,27.43,0,2.67,1.8,5.79,6.88,4.81A100,100,0,0,0,100,0"/>
  </g>
</svg>
