<svg xmlns="http://www.w3.org/2000/svg" xmlns:xlink="http://www.w3.org/1999/xlink" viewBox="0 0 2000 2000" class="bubble-hero" aria-hidden="true">
  <defs>
    <linearGradient id="Bubble_Hero" data-name="Bubble Hero" x1="609.17" y1="1920.74" x2="1390.83" y2="79.26" gradientUnits="userSpaceOnUse">
      <stop offset="0" stop-color="#0cf"/>
      <stop offset="0.97" stop-color="#0e10f4"/>
    </linearGradient>
  </defs>
  <g class="bub-sca-1">
    <g id="bubble-scale">
      <circle id="bubble" class="bub-sca-2" cx="1000" cy="1000" r="1000"/>
      <g id="scale">
        <g class="bub-sca-3">
          <path class="bub-sca-4" d="M972.62,1974h-.11a4,4,0,0,1-3.85-4.06l2.8-100.77a4,4,0,0,1,7.91.22l-2.79,100.76A4,4,0,0,1,972.62,1974Zm-26.22-5.07,3.37-57.5a4,4,0,0,0-7.91-.47l-3.36,57.51a4,4,0,0,0,3.72,4.18h.23A4,4,0,0,0,946.4,1968.89Zm-30.13-2.12,5.14-57.37a4,4,0,0,0-7.89-.71l-5.14,57.37a4,4,0,0,0,3.59,4.3l.36,0A4,4,0,0,0,916.27,1966.77Zm-30.06-3,6.92-57.18a4,4,0,0,0-7.86-1l-6.92,57.19a3.94,3.94,0,0,0,3.45,4.4l.48,0A4,4,0,0,0,886.21,1963.75Zm-30-3.92,8.69-56.94a4,4,0,1,0-7.83-1.2l-8.69,56.94a4,4,0,0,0,3.31,4.51,4.3,4.3,0,0,0,.61,0A4,4,0,0,0,856.25,1959.83Zm-31.14-5.21,18.46-99.1a4,4,0,0,0-7.78-1.45l-18.47,99.1a4,4,0,0,0,3.17,4.62,4.62,4.62,0,0,0,.73.07A4,4,0,0,0,825.11,1954.62Zm-29.65-5.89,12.32-56.27a4,4,0,0,0-7.74-1.69L787.72,1947a4,4,0,0,0,3,4.71,4.09,4.09,0,0,0,.85.09A4,4,0,0,0,795.46,1948.73ZM766,1942l14.08-55.85a4,4,0,0,0-7.68-1.94L758.32,1940a4,4,0,0,0,2.87,4.81,4.11,4.11,0,0,0,1,.12A4,4,0,0,0,766,1942Zm-29.23-7.7,15.82-55.38a4,4,0,1,0-7.62-2.18l-15.82,55.39a4,4,0,0,0,2.72,4.89,3.77,3.77,0,0,0,1.09.15A4,4,0,0,0,736.77,1934.25Zm-29-8.68,17.55-54.86a4,4,0,1,0-7.54-2.42l-17.55,54.86a4,4,0,1,0,7.54,2.42Zm-29.95-10,33.84-94.95a4,4,0,1,0-7.46-2.66l-33.84,95a4,4,0,0,0,2.4,5.06,4.09,4.09,0,0,0,1.33.23A4,4,0,0,0,677.86,1915.58Zm-28.38-10.44,21-53.62a4,4,0,0,0-7.38-2.9l-21,53.63a4,4,0,0,0,2.24,5.13,4.13,4.13,0,0,0,1.45.27A4,4,0,0,0,649.48,1905.14Zm-28-11.39,22.71-52.94a4,4,0,1,0-7.28-3.12l-22.71,52.94a4,4,0,0,0,7.28,3.12Zm-27.63-12.25,24.35-52.21A4,4,0,1,0,611,1826l-24.35,52.2a4,4,0,0,0,7.18,3.35Zm-27.25-13.08,26-51.41a4,4,0,0,0-7.07-3.57l-26,51.41a4,4,0,1,0,7.07,3.57Zm-28-14.56L587,1765.42a4,4,0,0,0-7-3.8l-48.36,88.44a4,4,0,0,0,7,3.8ZM512.26,1839l29.19-49.65a4,4,0,1,0-6.82-4L505.43,1835a4,4,0,0,0,6.83,4Zm-25.88-15.61,30.73-48.72a4,4,0,0,0-6.7-4.23l-30.73,48.72a4,4,0,1,0,6.7,4.23ZM461,1807.05l32.23-47.74a4,4,0,1,0-6.56-4.43l-32.23,47.74a4,4,0,1,0,6.56,4.43Zm-24.82-17.23,33.7-46.72a4,4,0,0,0-6.43-4.63l-33.69,46.72a4,4,0,0,0,6.42,4.63ZM410.8,1771l61.58-79.8a4,4,0,0,0-6.27-4.84l-61.58,79.8a4,4,0,0,0,6.27,4.84Zm-23.73-18.69,36.58-44.49a4,4,0,0,0-6.11-5L381,1747.32a4,4,0,0,0,6.12,5ZM364,1732.87l37.95-43.33a4,4,0,0,0-6-5.22L358,1727.65a4,4,0,1,0,6,5.22Zm-22.48-20.17,39.27-42.14a4,4,0,0,0-5.8-5.4l-39.27,42.14a4,4,0,0,0,5.8,5.4Zm-21.88-20.83,40.55-40.9a4,4,0,0,0-5.62-5.58L314,1686.29a4,4,0,0,0,5.63,5.58Zm-22.14-22.49,73.25-69.25a4,4,0,1,0-5.44-5.75L292,1663.63a4,4,0,0,0,2.72,6.83A3.9,3.9,0,0,0,297.47,1669.38ZM277,1647.18l43.06-38.26a4,4,0,1,0-5.26-5.92l-43.06,38.25a4,4,0,1,0,5.26,5.93Zm-19.82-22.8,44.22-36.91a4,4,0,1,0-5.07-6.08l-44.22,36.9a4,4,0,1,0,5.07,6.09ZM238.06,1601l45.34-35.52a4,4,0,1,0-4.88-6.23l-45.35,35.51a4,4,0,0,0,4.89,6.24Zm-18.32-24,46.42-34.09a4,4,0,1,0-4.68-6.38l-46.43,34.09a4,4,0,1,0,4.69,6.38Zm-18.38-25.65,83.14-57a4,4,0,1,0-4.48-6.53l-83.14,57a4,4,0,0,0,2.25,7.23A3.91,3.91,0,0,0,201.36,1551.3Zm-16.84-25.09,48.5-31.08a4,4,0,1,0-4.27-6.67l-48.5,31.08a4,4,0,0,0,4.27,6.67Zm-16-25.66L218,1471a4,4,0,1,0-4.07-6.8l-49.44,29.55a4,4,0,0,0,4.07,6.8Zm-15.2-26.12,50.34-28a4,4,0,0,0-3.85-6.92l-50.34,28a4,4,0,1,0,3.85,6.92Zm-14.42-26.56,51.19-26.41a4,4,0,0,0-3.63-7l-51.19,26.41a4,4,0,0,0,3.63,7Zm-14.11-28.24,91-43.27a4,4,0,1,0-3.4-7.15l-91,43.26a4,4,0,0,0,3.4,7.16Zm-12.64-27.46L165,1369.08a4,4,0,1,0-3.17-7.25L109,1384.91a4,4,0,0,0,1.59,7.59A3.91,3.91,0,0,0,112.19,1392.17Zm-11.81-27.83,53.46-21.42a4,4,0,1,0-2.94-7.35L97.43,1357a4,4,0,0,0,1.47,7.64A3.9,3.9,0,0,0,100.38,1364.34Zm-10.95-28.17,54.11-19.74a4,4,0,1,0-2.71-7.44l-54.12,19.74a4,4,0,0,0,1.36,7.68A4.06,4.06,0,0,0,89.43,1336.17Zm-10-28.54,54.7-18a4,4,0,0,0-2.48-7.53l-54.7,18a4,4,0,0,0,1.24,7.72A3.87,3.87,0,0,0,79.45,1307.63Zm-9.51-30.11,96.72-28.39a4,4,0,0,0-2.23-7.6l-96.72,28.39a4,4,0,0,0,2.23,7.6Zm-8.22-29.09L117.47,1234a4,4,0,0,0-2-7.67l-55.75,14.48a4,4,0,0,0,1,7.79A4.27,4.27,0,0,0,61.72,1248.43Zm-7.24-29.35,56.17-12.73a4,4,0,1,0-1.75-7.72l-56.17,12.72a4,4,0,0,0,.87,7.83A4.48,4.48,0,0,0,54.48,1219.08Zm-6.31-29.56,56.55-11a4,4,0,0,0-1.51-7.78l-56.55,11a4,4,0,0,0,.75,7.85A4.88,4.88,0,0,0,48.17,1189.52Zm-5.41-29.74,56.86-9.19a4,4,0,1,0-1.26-7.81L41.49,1152a4,4,0,0,0,.63,7.87A4.72,4.72,0,0,0,42.76,1159.78Zm-4.71-31.21,100-12.83a4,4,0,1,0-1-7.86L37,1120.71a4,4,0,0,0,.5,7.89Zm-3.47-30L91.92,1093a4,4,0,0,0-.77-7.88l-57.33,5.55a4,4,0,0,0,.38,7.9ZM32,1068.45l57.48-3.78a4,4,0,1,0-.52-7.9l-57.48,3.78a4,4,0,0,0,.26,7.91Zm-1.64-30.16,57.57-2a4,4,0,1,0-.28-7.92l-57.56,2a4,4,0,0,0,.13,7.92Zm-.73-30.18,57.6-.24a4,4,0,0,0,0-7.92h0l-57.6.24a4,4,0,0,0,0,7.92Zm105.05-32.59a4,4,0,0,0-3.84-4.06l-100.77-2.8a4,4,0,0,0-.21,7.92l100.76,2.79h.11A4,4,0,0,0,134.72,975.52ZM92.8,946.05a4,4,0,0,0-3.72-4.19L31.57,938.5a4,4,0,0,0-.46,7.9l57.5,3.37h.24A4,4,0,0,0,92.8,946.05Zm2.1-28.23a4,4,0,0,0-3.59-4.3l-57.37-5.14a4,4,0,1,0-.71,7.89l57.37,5.14.36,0A4,4,0,0,0,94.9,917.82Zm2.94-28.15a4,4,0,0,0-3.45-4.4L37.2,878.35a4,4,0,0,0-1,7.86l57.18,6.92.49,0A4,4,0,0,0,97.84,889.67Zm3.79-28a4,4,0,0,0-3.32-4.52l-56.94-8.69a4,4,0,0,0-1.2,7.83l56.94,8.69a4.3,4.3,0,0,0,.61,0A4,4,0,0,0,101.63,861.63Zm47.46-21.23a4,4,0,0,0-3.16-4.61l-99.1-18.47a4,4,0,1,0-1.45,7.79l99.1,18.46a3.51,3.51,0,0,0,.72.07A4,4,0,0,0,149.09,840.4Zm-36.84-35.64a4,4,0,0,0-3-4.72L53,787.72a4,4,0,0,0-1.69,7.74l56.27,12.32a4.09,4.09,0,0,0,.85.09A4,4,0,0,0,112.25,804.76Zm6.46-27.55a4,4,0,0,0-2.87-4.81L60,758.32A4,4,0,0,0,58.05,766l55.85,14.08a4.11,4.11,0,0,0,1,.12A4,4,0,0,0,118.71,777.21ZM126,749.87a4,4,0,0,0-2.72-4.9L67.92,729.15a4,4,0,0,0-2.17,7.62l55.38,15.82a4.15,4.15,0,0,0,1.09.15A4,4,0,0,0,126,749.87Zm8.24-27.07a4,4,0,0,0-2.56-5L76.85,700.27a4,4,0,1,0-2.42,7.54l54.86,17.55a3.92,3.92,0,0,0,1.21.19A4,4,0,0,0,134.27,722.8Zm50.16-13.5a4,4,0,0,0-2.4-5.06L87.08,670.4a4,4,0,0,0-2.66,7.46l95,33.84a3.88,3.88,0,0,0,1.33.23A4,4,0,0,0,184.43,709.3Zm-30.81-41a4,4,0,0,0-2.24-5.14l-53.63-21a4,4,0,1,0-2.89,7.37l53.62,21a4.13,4.13,0,0,0,1.45.27A4,4,0,0,0,153.62,668.28Zm10.77-26.17a4,4,0,0,0-2.08-5.2L109.37,614.2a4,4,0,0,0-3.12,7.28l52.94,22.71a4.07,4.07,0,0,0,1.56.32A4,4,0,0,0,164.39,642.11ZM176,616.29a4,4,0,0,0-1.92-5.27l-52.2-24.35a4,4,0,0,0-3.35,7.18l52.21,24.35a4,4,0,0,0,5.26-1.91Zm12.34-25.47a4,4,0,0,0-1.75-5.32l-51.41-26a4,4,0,0,0-3.57,7.07l51.41,26a3.95,3.95,0,0,0,5.32-1.75ZM240,585.37a4,4,0,0,0-1.57-5.37l-88.44-48.36a4,4,0,1,0-3.8,7L234.58,587a4,4,0,0,0,5.37-1.58Zm-23.9-45.32a4,4,0,0,0-1.41-5.42L165,505.43a4,4,0,0,0-4,6.83l49.65,29.19a4,4,0,0,0,5.43-1.4Zm14.71-24.18a4,4,0,0,0-1.23-5.46l-48.72-30.73a4,4,0,1,0-4.23,6.7l48.72,30.73a4,4,0,0,0,2.11.61A3.94,3.94,0,0,0,230.76,515.87Zm15.43-23.73a4,4,0,0,0-1.07-5.49l-47.74-32.23A4,4,0,1,0,193,461l47.74,32.23a4,4,0,0,0,5.5-1.07ZM262.43,469a4,4,0,0,0-.9-5.53l-46.72-33.69a4,4,0,0,0-4.63,6.42l46.72,33.7a4,4,0,0,0,5.53-.9Zm51.88,2.71a4,4,0,0,0-.71-5.56l-79.8-61.58A4,4,0,1,0,229,410.8l79.8,61.58a3.95,3.95,0,0,0,5.55-.71Zm-16.6-48.56a4,4,0,0,0-.54-5.57L252.68,381a4,4,0,0,0-5,6.12l44.49,36.58a3.94,3.94,0,0,0,5.57-.54Zm18.34-21.56a4,4,0,0,0-.37-5.59L272.35,358a4,4,0,0,0-5.22,6l43.33,37.95a4,4,0,0,0,5.59-.37Zm19-21a4,4,0,0,0-.2-5.6L292.7,335.69a4,4,0,0,0-5.4,5.8l42.14,39.27a4,4,0,0,0,5.6-.2Zm19.59-20.42a4,4,0,0,0,0-5.6L313.71,314a4,4,0,0,0-5.58,5.63L349,360.16a4,4,0,0,0,5.6,0Zm50.83,10.74a4,4,0,0,0,.16-5.6L336.37,292a4,4,0,1,0-5.75,5.44l69.25,73.25a4,4,0,0,0,5.59.16Zm-8.79-50.5a4,4,0,0,0,.33-5.59l-38.25-43.06a4,4,0,0,0-5.93,5.26l38.26,43.06a4,4,0,0,0,5.59.33Zm21.44-18.48a4,4,0,0,0,.5-5.58l-36.9-44.22a4,4,0,0,0-6.09,5.07l36.91,44.22a4,4,0,0,0,5.58.51Zm22-17.82a4,4,0,0,0,.67-5.56l-35.51-45.35a4,4,0,0,0-6.24,4.89l35.52,45.34a4,4,0,0,0,5.56.68ZM462.67,267a3.94,3.94,0,0,0,.85-5.53l-34.09-46.43a4,4,0,1,0-6.38,4.69l34.09,46.42a3.95,3.95,0,0,0,5.53.85Zm48.53,18.52a4,4,0,0,0,1-5.51l-57-83.14a4,4,0,0,0-6.54,4.48l57,83.14a4,4,0,0,0,3.27,1.72A3.91,3.91,0,0,0,511.2,285.53Zm-.86-51.31a4,4,0,0,0,1.2-5.47l-31.08-48.5a4,4,0,1,0-6.67,4.27L504.87,233a4,4,0,0,0,5.47,1.2Zm24.09-14.85a4,4,0,0,0,1.37-5.44l-29.55-49.44a4,4,0,0,0-6.8,4.07L529,218a4,4,0,0,0,3.4,1.93A3.91,3.91,0,0,0,534.43,219.37ZM559,205.23a4,4,0,0,0,1.54-5.38l-28-50.34a4,4,0,1,0-6.92,3.85l28,50.34a4,4,0,0,0,5.38,1.53Zm24.93-13.4a4,4,0,0,0,1.7-5.33l-26.41-51.19a4,4,0,0,0-7,3.63l26.41,51.19a4,4,0,0,0,3.53,2.15A3.94,3.94,0,0,0,583.88,191.83Zm45,25.92a4,4,0,0,0,1.87-5.28l-43.26-91a4,4,0,0,0-7.16,3.4l43.27,91a4,4,0,0,0,5.28,1.88ZM636.13,167a4,4,0,0,0,2-5.21L615.09,109a4,4,0,0,0-7.26,3.18L630.92,165a4,4,0,0,0,5.21,2Zm26.09-10.95a4,4,0,0,0,2.21-5.15L643,97.43a4,4,0,0,0-7.35,2.95l21.42,53.46a3.94,3.94,0,0,0,3.67,2.49A4,4,0,0,0,662.22,156.05Zm26.42-10.14a4,4,0,0,0,2.37-5.08L671.27,86.71a4,4,0,0,0-7.44,2.72l19.74,54.11a3.95,3.95,0,0,0,5.07,2.37Zm26.75-9.24a4,4,0,0,0,2.53-5l-18-54.7a4,4,0,1,0-7.52,2.48l18,54.7a4,4,0,0,0,3.76,2.72A3.83,3.83,0,0,0,715.39,136.67Zm40.39,32.67a4,4,0,0,0,2.69-4.91L730.08,67.71a4,4,0,1,0-7.6,2.23l28.39,96.72a4,4,0,0,0,4.91,2.68Zm15.1-49a4,4,0,0,0,2.84-4.83L759.24,59.73a4,4,0,1,0-7.67,2l14.48,55.75a4,4,0,0,0,3.83,3A4.29,4.29,0,0,0,770.88,120.31Zm27.5-6.67a4,4,0,0,0,3-4.74L788.65,52.73a4,4,0,1,0-7.73,1.75l12.73,56.17a4,4,0,0,0,3.85,3.09A3.77,3.77,0,0,0,798.38,113.64Zm27.7-5.79a4,4,0,0,0,3.14-4.64l-11-56.55a4,4,0,0,0-7.78,1.51l11,56.55a4,4,0,0,0,3.89,3.2A3.81,3.81,0,0,0,826.08,107.85ZM854,102.9a4,4,0,0,0,3.27-4.54L848,41.49a4,4,0,0,0-7.82,1.27l9.19,56.86a4,4,0,0,0,3.9,3.33A4.72,4.72,0,0,0,854,102.9Zm34.74,38.56a4,4,0,0,0,3.43-4.44L879.29,37a4,4,0,0,0-7.86,1l12.83,100a4,4,0,0,0,3.92,3.46Zm22.63-46a4,4,0,0,0,3.56-4.32l-5.55-57.33a4,4,0,0,0-7.88.76L907,91.91a4,4,0,0,0,3.94,3.58A2.48,2.48,0,0,0,911.32,95.47Zm28.22-2.26A4,4,0,0,0,943.23,89l-3.78-57.48a4,4,0,0,0-7.9.52l3.78,57.48a4,4,0,0,0,3.94,3.7Zm28.27-1.42a4,4,0,0,0,3.82-4.1l-2-57.56a4,4,0,0,0-7.91.27l2,57.57a4,4,0,0,0,4,3.82Zm28.3-.58a4,4,0,0,0,3.94-4l-.24-57.6a4,4,0,0,0-4-3.94h0a4,4,0,0,0-3.94,4l.24,57.6a4,4,0,0,0,4,3.94Zm32.43,39.67,2.8-100.77a4,4,0,0,0-7.92-.21l-2.79,100.76a4,4,0,0,0,3.85,4.06h.11A4,4,0,0,0,1028.54,130.88Zm29.6-41.8,3.36-57.51a4,4,0,0,0-7.9-.46l-3.37,57.5A4,4,0,0,0,1054,92.8h.24A4,4,0,0,0,1058.14,89.08Zm28.34,2.23,5.14-57.37a4,4,0,0,0-7.89-.71l-5.14,57.37a4,4,0,0,0,3.59,4.3h.36A4,4,0,0,0,1086.48,91.31Zm28.25,3.08,6.92-57.19a4,4,0,0,0-7.86-1l-6.92,57.18a4,4,0,0,0,3.46,4.41l.48,0A4,4,0,0,0,1114.73,94.39Zm28.16,3.92,8.69-56.94a4,4,0,0,0-7.83-1.2l-8.69,56.94a4,4,0,0,0,3.31,4.52,4.26,4.26,0,0,0,.61,0A4,4,0,0,0,1142.89,98.31Zm21.32,47.62,18.47-99.1a4,4,0,0,0-7.79-1.45l-18.46,99.09a4,4,0,0,0,3.17,4.62,3.54,3.54,0,0,0,.73.07A4,4,0,0,0,1164.21,145.93Zm35.75-36.7L1212.28,53a4,4,0,0,0-7.74-1.69l-12.32,56.27a4,4,0,0,0,3,4.71,3.58,3.58,0,0,0,.85.1A4,4,0,0,0,1200,109.23Zm27.64,6.61L1241.68,60a4,4,0,1,0-7.68-1.94l-14.08,55.85a4,4,0,0,0,2.87,4.81,4.17,4.17,0,0,0,1,.12A4,4,0,0,0,1227.6,115.84Zm27.43,7.47,15.82-55.39a4,4,0,0,0-7.62-2.17l-15.82,55.38a4,4,0,0,0,2.72,4.9,4.15,4.15,0,0,0,1.09.15A4,4,0,0,0,1255,123.31Zm27.15,8.4,17.55-54.86a4,4,0,1,0-7.54-2.42l-17.55,54.86a4,4,0,0,0,2.56,5,3.92,3.92,0,0,0,1.21.19A4,4,0,0,0,1282.18,131.71ZM1295.76,182l33.84-94.95a4,4,0,1,0-7.46-2.66l-33.84,95a4,4,0,0,0,2.4,5.06,3.88,3.88,0,0,0,1.33.23A4,4,0,0,0,1295.76,182Zm41.1-30.65,21-53.63a4,4,0,1,0-7.37-2.89l-21,53.62a4,4,0,0,0,2.24,5.14,4.13,4.13,0,0,0,1.45.27A4,4,0,0,0,1336.86,151.38Zm26.23,10.93,22.71-52.94a4,4,0,1,0-7.28-3.12l-22.71,52.94a4,4,0,0,0,2.08,5.2,4.11,4.11,0,0,0,1.56.32A4,4,0,0,0,1363.09,162.31ZM1389,174.05l24.35-52.2a4,4,0,0,0-7.18-3.35l-24.35,52.21a4,4,0,0,0,1.91,5.26,4,4,0,0,0,1.68.37A4,4,0,0,0,1389,174.05Zm25.52,12.51,26-51.41a4,4,0,0,0-7.07-3.57l-26,51.41a4,4,0,1,0,7.07,3.57Zm5.5,51.82,48.36-88.44a4,4,0,1,0-6.95-3.8l-48.36,88.44a4,4,0,0,0,7,3.8Zm45.37-23.74,29.2-49.65a4,4,0,0,0-6.83-4l-29.19,49.65a4,4,0,1,0,6.82,4Zm24.22,14.89,30.73-48.72a4,4,0,1,0-6.7-4.23l-30.73,48.72a4,4,0,0,0,1.24,5.46,3.85,3.85,0,0,0,2.1.61A4,4,0,0,0,1489.59,229.53Zm23.76,15.59,32.23-47.74A4,4,0,1,0,1539,193l-32.23,47.74a4,4,0,0,0,1.07,5.5,4,4,0,0,0,5.49-1.07Zm23.22,16.41,33.69-46.72a4,4,0,0,0-6.42-4.63l-33.7,46.72a4,4,0,0,0,6.43,4.63Zm-2.68,52.07,61.58-79.8a4,4,0,1,0-6.27-4.84l-61.58,79.8a4,4,0,0,0,6.27,4.84Zm48.57-16.43,36.59-44.49a4,4,0,0,0-6.12-5l-36.58,44.49a4,4,0,1,0,6.11,5ZM1604,315.68,1642,272.35a4,4,0,1,0-6-5.22l-38,43.33a4,4,0,0,0,6,5.22Zm21,19.16,39.27-42.14a4,4,0,0,0-5.8-5.4l-39.27,42.14a4,4,0,0,0,5.8,5.4Zm20.42,19.77,40.56-40.9a4,4,0,0,0-5.63-5.58L1639.84,349a4,4,0,1,0,5.62,5.58Zm-10.74,51L1708,336.37a4,4,0,1,0-5.44-5.75l-73.25,69.25a4,4,0,0,0,5.44,5.75Zm50.49-8.62,43.06-38.25a4,4,0,0,0-5.26-5.93L1680,391.08a4,4,0,1,0,5.26,5.92Zm18.47,21.61,44.22-36.9a4,4,0,1,0-5.07-6.09l-44.22,36.91a4,4,0,1,0,5.07,6.08Zm17.8,22.16,45.35-35.51a4,4,0,0,0-4.89-6.24l-45.34,35.52a4,4,0,0,0,4.88,6.23Zm17,22.75L1785,429.43a4,4,0,1,0-4.69-6.38l-46.42,34.09a4,4,0,1,0,4.68,6.38ZM1720,512.23l83.14-57a4,4,0,0,0-4.48-6.54l-83.14,57a4,4,0,1,0,4.48,6.53Zm51.27-.69,48.5-31.08a4,4,0,0,0-4.27-6.67L1767,504.87a4,4,0,0,0,4.27,6.67Zm14.82,24.26,49.44-29.55a4,4,0,0,0-4.07-6.8L1782,529a4,4,0,0,0,4.07,6.8Zm14.08,24.69,50.34-28a4,4,0,1,0-3.85-6.92l-50.34,28a4,4,0,1,0,3.85,6.92Zm13.35,25.09,51.19-26.41a4,4,0,0,0-3.63-7l-51.19,26.41a4,4,0,0,0,3.63,7Zm-26,45.21,91-43.26a4,4,0,1,0-3.4-7.16l-91,43.27a4,4,0,0,0,1.7,7.54A3.84,3.84,0,0,0,1787.53,630.79Zm50.68,7.38L1891,615.09a4,4,0,1,0-3.18-7.26L1835,630.91a4,4,0,0,0,1.59,7.59A3.83,3.83,0,0,0,1838.21,638.17Zm10.89,26.26L1902.57,643a4,4,0,0,0-2.94-7.35l-53.47,21.41a4,4,0,0,0,2.94,7.36ZM1859.17,691l54.12-19.74a4,4,0,0,0-2.72-7.44l-54.11,19.74a4,4,0,0,0,1.35,7.68A4,4,0,0,0,1859.17,691Zm9.16,26.91,54.7-18a4,4,0,0,0-2.48-7.52l-54.7,18a4,4,0,0,0,1.24,7.73A4.12,4.12,0,0,0,1868.33,717.92Zm-32.76,40.55,96.72-28.39a4,4,0,1,0-2.23-7.6l-96.72,28.39a4,4,0,0,0,1.12,7.76A3.87,3.87,0,0,0,1835.57,758.47Zm49,15.25,55.75-14.48a4,4,0,1,0-2-7.67l-55.75,14.48a4,4,0,0,0,1,7.8A4.29,4.29,0,0,0,1884.52,773.72Zm6.58,27.65,56.17-12.72a4,4,0,1,0-1.75-7.73l-56.17,12.73a4,4,0,0,0,.87,7.82A3.83,3.83,0,0,0,1891.1,801.37Zm5.69,27.85,56.55-11a4,4,0,0,0-1.51-7.78l-56.55,11a4,4,0,0,0,.75,7.85A3.91,3.91,0,0,0,1896.79,829.22Zm4.85,28,56.87-9.19a4,4,0,0,0-1.27-7.82l-56.86,9.19a4,4,0,0,0,.63,7.87A4.46,4.46,0,0,0,1901.64,857.23ZM1863,892.12l100-12.83a4,4,0,0,0-1-7.86l-100,12.83a4,4,0,0,0,.5,7.89Zm45.87,22.76,57.33-5.55a4,4,0,0,0-.76-7.88L1908.08,907a4,4,0,0,0,.38,7.9A2.55,2.55,0,0,0,1908.85,914.88Zm2.15,28.35,57.48-3.78a4,4,0,1,0-.52-7.9l-57.48,3.78a4,4,0,0,0,.26,7.91Zm1.31,28.4,57.56-2a4,4,0,0,0-.27-7.91l-57.57,2a4,4,0,0,0,.14,7.92Zm.46,28.42,57.6-.24a4,4,0,0,0,0-7.92h0l-57.6.24a4,4,0,0,0,0,7.92Zm61.18,27.44a4,4,0,0,0-3.85-4.07l-100.76-2.79a4,4,0,0,0-.22,7.91l100.77,2.8h.11A4,4,0,0,0,1974,1027.49Zm-1.34,30.29a4,4,0,0,0-3.72-4.18l-57.5-3.37a4,4,0,0,0-.47,7.91l57.5,3.36h.24A4,4,0,0,0,1972.61,1057.78Zm-2.25,30.25a4,4,0,0,0-3.59-4.3l-57.37-5.14a4,4,0,0,0-.71,7.89l57.37,5.14h.36A4,4,0,0,0,1970.36,1088Zm-3.15,30.17a4,4,0,0,0-3.46-4.41l-57.18-6.92a4,4,0,0,0-1,7.86l57.19,6.92.48,0A4,4,0,0,0,1967.21,1118.2Zm-4.07,30.07a4,4,0,0,0-3.31-4.52l-56.94-8.69a4,4,0,1,0-1.2,7.83l56.94,8.69a3,3,0,0,0,.6.05A4,4,0,0,0,1963.14,1148.27Zm-5.35,31.24a4,4,0,0,0-3.17-4.62l-99.09-18.46a4,4,0,0,0-1.46,7.78l99.1,18.47a4.51,4.51,0,0,0,.73.07A4,4,0,0,0,1957.79,1179.51Zm-6,29.74a4,4,0,0,0-3-4.71l-56.27-12.32a4,4,0,0,0-1.69,7.74l56.27,12.32a4.09,4.09,0,0,0,.85.09A4,4,0,0,0,1951.75,1209.25Zm-6.93,29.56A4,4,0,0,0,1942,1234l-55.85-14.08a4,4,0,0,0-1.94,7.68l55.85,14.08a4.09,4.09,0,0,0,1,.12A4,4,0,0,0,1944.82,1238.81Zm-7.85,29.32a4,4,0,0,0-2.72-4.9l-55.38-15.82a4,4,0,1,0-2.18,7.62l55.39,15.82a4,4,0,0,0,1.09.15A4,4,0,0,0,1937,1268.13Zm-8.84,29a4,4,0,0,0-2.56-5l-54.86-17.55a4,4,0,0,0-2.42,7.54l54.86,17.55a4,4,0,0,0,5-2.56Zm-10.15,30a4,4,0,0,0-2.4-5.06l-94.95-33.84a4,4,0,1,0-2.66,7.46l95,33.84a3.84,3.84,0,0,0,1.33.23A4,4,0,0,0,1918,1327.2Zm-10.6,28.45a4,4,0,0,0-2.24-5.13l-53.62-21a4,4,0,0,0-2.9,7.38l53.63,21a3.83,3.83,0,0,0,1.44.27A4,4,0,0,0,1907.38,1355.65Zm-11.55,28.07a4,4,0,0,0-2.08-5.2l-52.94-22.71a4,4,0,1,0-3.12,7.28l52.94,22.71a4,4,0,0,0,5.2-2.08Zm-12.42,27.69a4,4,0,0,0-1.91-5.26l-52.21-24.35A4,4,0,1,0,1826,1389l52.2,24.35a4,4,0,0,0,5.26-1.92Zm-13.24,27.31a4,4,0,0,0-1.75-5.32l-51.41-26a4,4,0,0,0-3.57,7.07l51.41,26a3.92,3.92,0,0,0,1.78.43A4,4,0,0,0,1870.17,1438.72Zm-14.73,28.07a4,4,0,0,0-1.58-5.38l-88.44-48.36a4,4,0,0,0-3.8,7l88.44,48.36a4,4,0,0,0,5.38-1.57Zm-15,26.37a4,4,0,0,0-1.4-5.42l-49.65-29.19a4,4,0,1,0-4,6.82l49.65,29.2a4,4,0,0,0,2,.54A3.92,3.92,0,0,0,1840.43,1493.16Zm-15.77,25.92a4,4,0,0,0-1.24-5.46l-48.72-30.73a4,4,0,0,0-4.23,6.7l48.72,30.73a4,4,0,0,0,5.47-1.24Zm-16.54,25.44a4,4,0,0,0-1.07-5.5l-47.74-32.23a4,4,0,1,0-4.43,6.56l47.74,32.23a3.93,3.93,0,0,0,2.21.68A4,4,0,0,0,1808.12,1544.52Zm-17.41,24.84a4,4,0,0,0-.89-5.52l-46.72-33.7a4,4,0,1,0-4.63,6.43l46.72,33.69a3.94,3.94,0,0,0,5.52-.9Zm-19,25.39a4,4,0,0,0-.72-5.55l-79.8-61.58a4,4,0,0,0-4.84,6.27l79.8,61.58a4,4,0,0,0,5.56-.72Zm-18.87,23.76a4,4,0,0,0-.54-5.58l-44.49-36.58a4,4,0,0,0-5,6.11l44.49,36.59a3.89,3.89,0,0,0,2.51.9A4,4,0,0,0,1752.89,1618.51Zm-19.65,23.1a4,4,0,0,0-.37-5.58l-43.33-38a4,4,0,0,0-5.22,6l43.33,37.94a3.94,3.94,0,0,0,5.59-.37Zm-20.35,22.5a4,4,0,0,0-.19-5.6l-42.14-39.27a4,4,0,0,0-5.4,5.8l42.14,39.27a4,4,0,0,0,5.59-.2Zm-21,21.88a4,4,0,0,0,0-5.6l-40.9-40.55a4,4,0,0,0-5.58,5.62l40.9,40.56a3.95,3.95,0,0,0,5.6,0Zm-22.66,22.14a4,4,0,0,0,.15-5.6l-69.25-73.25a4,4,0,1,0-5.75,5.44l69.25,73.25a4,4,0,0,0,5.6.16Zm-22.38,20.47a4,4,0,0,0,.33-5.59L1608.92,1680a4,4,0,0,0-5.92,5.26l38.25,43.06a4,4,0,0,0,5.6.33Zm-23,19.81a4,4,0,0,0,.51-5.58l-36.91-44.22a4,4,0,1,0-6.08,5.07l36.9,44.22a4,4,0,0,0,3,1.43A3.93,3.93,0,0,0,1623.87,1748.41Zm-23.57,19.09a4,4,0,0,0,.68-5.56l-35.52-45.34a4,4,0,1,0-6.23,4.88l35.51,45.35a4,4,0,0,0,3.12,1.51A3.91,3.91,0,0,0,1600.3,1767.5Zm-24.19,18.3a4,4,0,0,0,.84-5.54l-34.09-46.42a4,4,0,1,0-6.38,4.68l34.09,46.43a4,4,0,0,0,5.54.85Zm-25.84,18.34a4,4,0,0,0,1-5.5l-57-83.14a4,4,0,1,0-6.53,4.48l57,83.14a4,4,0,0,0,5.51,1ZM1525,1821a4,4,0,0,0,1.2-5.47l-31.08-48.5a4,4,0,0,0-6.67,4.27l31.08,48.5a3.95,3.95,0,0,0,5.47,1.2Zm-25.83,15.92a4,4,0,0,0,1.37-5.43L1471,1782a4,4,0,1,0-6.8,4.06l29.55,49.45a4,4,0,0,0,3.4,1.93A3.92,3.92,0,0,0,1499.18,1836.87ZM1472.89,1852a4,4,0,0,0,1.54-5.39l-28-50.34a4,4,0,0,0-6.92,3.85l28,50.34a3.95,3.95,0,0,0,5.38,1.54Zm-26.73,14.36a4,4,0,0,0,1.71-5.33l-26.41-51.19a4,4,0,0,0-7,3.63l26.41,51.19a4,4,0,0,0,5.33,1.7Zm-28.41,14.06a4,4,0,0,0,1.88-5.28l-43.27-91a4,4,0,1,0-7.15,3.4l43.26,91a4,4,0,0,0,5.28,1.88ZM1390.13,1893a4,4,0,0,0,2-5.22L1369.08,1835a4,4,0,1,0-7.25,3.17l23.08,52.78a4,4,0,0,0,3.63,2.37A4.08,4.08,0,0,0,1390.13,1893Zm-28,11.74a3.94,3.94,0,0,0,2.2-5.14l-21.42-53.47a4,4,0,1,0-7.35,2.94l21.42,53.47a4,4,0,0,0,3.68,2.49A3.81,3.81,0,0,0,1362.14,1904.77Zm-28.34,10.88a4,4,0,0,0,2.37-5.08l-19.74-54.11a4,4,0,1,0-7.44,2.71l19.74,54.12a4,4,0,0,0,3.72,2.6A4,4,0,0,0,1333.8,1915.65Zm-28.69,9.91a4,4,0,0,0,2.52-5l-18-54.7a4,4,0,0,0-7.53,2.48l18,54.7a4,4,0,0,0,3.76,2.72A4.11,4.11,0,0,0,1305.11,1925.56Zm-30.27,9.42a4,4,0,0,0,2.68-4.92l-28.39-96.72a4,4,0,0,0-7.6,2.23l28.39,96.72a4,4,0,0,0,4.92,2.69Zm-29.25,8.13a4,4,0,0,0,2.84-4.83L1234,1882.53a4,4,0,0,0-7.67,2l14.48,55.75a4,4,0,0,0,3.83,3A4.29,4.29,0,0,0,1245.59,1943.11Zm-29.5,7.15a4,4,0,0,0,3-4.74l-12.73-56.17a4,4,0,1,0-7.72,1.75l12.72,56.17a4,4,0,0,0,3.86,3.09A3.77,3.77,0,0,0,1216.09,1950.26Zm-29.71,6.21a4,4,0,0,0,3.14-4.64l-11-56.55a4,4,0,0,0-7.78,1.51l11,56.55a4,4,0,0,0,3.88,3.2A3.91,3.91,0,0,0,1186.38,1956.47Zm-29.88,5.31a4,4,0,0,0,3.28-4.54l-9.19-56.86a4,4,0,1,0-7.81,1.26l9.18,56.87a4,4,0,0,0,3.91,3.32A3.35,3.35,0,0,0,1156.5,1961.78Zm-31.36,4.6a4,4,0,0,0,3.43-4.43l-12.83-100a4,4,0,1,0-7.86,1l12.83,100a4,4,0,0,0,3.92,3.45Zm-30.15,3.36a4,4,0,0,0,3.56-4.32l-5.55-57.34a4,4,0,0,0-7.88.77l5.55,57.33a4,4,0,0,0,3.93,3.58Zm-30.23,2.43a4,4,0,0,0,3.69-4.21l-3.78-57.48a4,4,0,1,0-7.9.52l3.78,57.48a4,4,0,0,0,3.94,3.7Zm-30.29,1.52a4,4,0,0,0,3.82-4.09l-2-57.57a4,4,0,1,0-7.92.28l2,57.56a4,4,0,0,0,3.95,3.82Zm-30.3.62a4,4,0,0,0,3.94-4l-.24-57.6a4,4,0,0,0-4-3.94h0a4,4,0,0,0-3.94,4l.24,57.6a4,4,0,0,0,4,3.94Z"/>
        </g>
      </g>
    </g>
  </g>
</svg>
