<svg xmlns="http://www.w3.org/2000/svg" xmlns:xlink="http://www.w3.org/1999/xlink" viewBox="0 0 800 800" class="icon icon-web-backend" style="display:none" aria-hidden="true">
  <g id="icon-web-backend">
    <circle id="background" class="web-bac-1" cx="400" cy="400" r="400"/>
    <rect id="screen-back" class="web-bac-2" x="180" y="240" width="440" height="320"/>
    <path id="cog" class="web-bac-3" d="M481,408.63V391.4L458.55,383a59.54,59.54,0,0,0-4.86-11.76l9.95-21.75-12.19-12.19-21.77,10a59.94,59.94,0,0,0-11.74-4.85L409.58,320H392.35L384,342.46a59.25,59.25,0,0,0-11.69,4.85l-21.81-10L338.3,349.52l10,21.83A59.36,59.36,0,0,0,343.46,383L321,391.39v17.23L343.46,417a60.51,60.51,0,0,0,4.81,11.65l-10,21.83,12.19,12.19,21.82-10A59.26,59.26,0,0,0,384,457.53L392.34,480h17.24L418,457.56a59.65,59.65,0,0,0,11.71-4.84l21.78,10,12.19-12.18-9.95-21.77A59.84,59.84,0,0,0,458.55,417ZM401,430a30,30,0,1,1,30-30A30,30,0,0,1,401,430Z"/>
    <rect id="screen-front" class="web-bac-4" x="140" y="280" width="440" height="320"/>
  </g>
</svg>
