<svg xmlns="http://www.w3.org/2000/svg" xmlns:xlink="http://www.w3.org/1999/xlink" viewBox="0 0 800 800" class="icon icon-graphic" style="display:none" aria-hidden="true">
  <g id="icon-graphic">
    <circle id="background" class="gra-1" cx="400" cy="400" r="400"/>
    <g id="ruler">
      <rect id="background-2" data-name="background" class="gra-2" x="350" y="121" width="100" height="560" transform="translate(-166.39 400.29) rotate(-45)"/>
      <g id="scale">
        <line class="gra-3" x1="251.51" y1="238.37" x2="279.79" y2="210.08"/>
        <line class="gra-3" x1="279.79" y1="266.65" x2="308.08" y2="238.37"/>
        <line class="gra-3" x1="308.08" y1="294.93" x2="336.36" y2="266.65"/>
        <line class="gra-3" x1="336.36" y1="323.22" x2="364.64" y2="294.93"/>
        <line class="gra-3" x1="364.64" y1="351.5" x2="392.93" y2="323.22"/>
        <line class="gra-3" x1="392.93" y1="379.79" x2="421.21" y2="351.5"/>
        <line class="gra-3" x1="421.21" y1="408.07" x2="449.5" y2="379.79"/>
        <line class="gra-3" x1="449.5" y1="436.36" x2="477.78" y2="408.07"/>
        <line class="gra-3" x1="477.78" y1="464.64" x2="506.07" y2="436.36"/>
        <line class="gra-3" x1="506.07" y1="492.92" x2="534.35" y2="464.64"/>
        <line class="gra-3" x1="534.35" y1="521.21" x2="562.63" y2="492.92"/>
        <line class="gra-3" x1="562.63" y1="549.49" x2="590.92" y2="521.21"/>
      </g>
      <rect id="border" class="gra-4" x="350" y="121" width="100" height="560" transform="translate(-166.39 400.29) rotate(-45)"/>
    </g>
    <g id="pen">
      <path id="background-3" data-name="background" class="gra-2" d="M367,504.68,296.32,434,562.66,191.2s28.28-28.28,51.85-4.71-4.71,51.85-4.71,51.85Z"/>
      <polygon id="grip" class="gra-3" points="325.91 407 394 475.09 488.41 371.51 429.49 312.59 325.91 407"/>
      <path id="border-2" data-name="border" class="gra-4" d="M367,504.68,296.32,434,562.66,191.2s28.28-28.28,51.85-4.71-4.71,51.85-4.71,51.85Z"/>
      <polygon class="gra-5" points="312.81 535.33 265.67 488.19 296.31 433.97 367.03 504.69 312.81 535.33"/>
      <polygon class="gra-5" points="265.67 488.19 312.81 535.33 282.17 589.54 176.11 624.89 211.46 518.83 265.67 488.19"/>
      <line class="gra-4" x1="176.11" y1="624.89" x2="246.82" y2="554.18"/>
    </g>
  </g>
</svg>
