<svg xmlns="http://www.w3.org/2000/svg" xmlns:xlink="http://www.w3.org/1999/xlink" viewBox="0 0 800 800" class="icon icon-graphic-images" style="display:none" aria-hidden="true">
  <g id="icon-graphic-images">
    <circle id="background" class="gra-ima-1" cx="400" cy="400" r="400"/>
    <g id="panel-vector">
      <rect class="gra-ima-2" x="160" y="160" width="300" height="260"/>
      <circle id="vector-shape" class="gra-ima-3" cx="315.65" cy="273.8" r="80"/>
      <g id="bezier-handle">
        <line class="gra-ima-2" x1="213.82" y1="224.4" x2="266.18" y2="375.6"/>
        <rect class="gra-ima-2" x="230" y="290" width="20" height="20" transform="translate(-84.95 95.05) rotate(-19.1)"/>
        <circle class="gra-ima-2" cx="213.82" cy="224.4" r="10"/>
        <circle class="gra-ima-2" cx="266.18" cy="375.6" r="10"/>
      </g>
    </g>
    <g id="panel-raster">
      <rect class="gra-ima-2" x="380" y="220" width="280" height="380"/>
      <ellipse id="head" class="gra-ima-4" cx="520" cy="364.4" rx="54.71" ry="64.4"/>
      <path id="body" class="gra-ima-5" d="M400,580c0-80,60-120,120-120s120,40,120,120Z"/>
    </g>
    <g id="panel-control">
      <rect class="gra-ima-2" x="220" y="500" width="240" height="160"/>
      <line class="gra-ima-3" x1="260" y1="540" x2="420" y2="540"/>
      <line class="gra-ima-3" x1="260" y1="580" x2="420" y2="580"/>
      <line class="gra-ima-3" x1="260" y1="620" x2="420" y2="620"/>
      <circle id="fader1" class="gra-ima-2" cx="280" cy="540" r="10"/>
      <circle id="fader2" class="gra-ima-2" cx="360" cy="580" r="10"/>
      <circle id="fader3" class="gra-ima-2" cx="320" cy="620" r="10"/>
    </g>
  </g>
</svg>
