<svg xmlns="http://www.w3.org/2000/svg" xmlns:xlink="http://www.w3.org/1999/xlink" viewBox="0 0 2280 2280" class="bubble-hero" aria-hidden="true">
  <defs>
    <linearGradient id="Bubble_Hero" data-name="Bubble Hero" x1="693.72" y1="2191.37" x2="1586.28" y2="88.63" gradientUnits="userSpaceOnUse">
      <stop offset="0" stop-color="#0cf"/>
      <stop offset="0.97" stop-color="#0e10f4"/>
    </linearGradient>
  </defs>
  <path id="bubble-cog" class="bub-cog-1" d="M2267.18,1035.07l-139.72-53.74a993.11,993.11,0,0,0-52.86-197.77l94-116.28a20,20,0,0,0,1.77-22.57l-86.26-149.42a20,20,0,0,0-20.44-9.75l-148,23.34A1006.06,1006.06,0,0,0,1771.12,364.3l23.34-148a20,20,0,0,0-9.75-20.44L1635.29,109.6a20,20,0,0,0-22.57,1.77l-116.28,94a992.93,992.93,0,0,0-197.77-52.86L1244.93,12.82A20,20,0,0,0,1226.26,0H1053.74a20,20,0,0,0-18.67,12.82L981.33,152.54A993.11,993.11,0,0,0,783.56,205.4l-116.28-94a20,20,0,0,0-22.57-1.77L495.29,195.86a20,20,0,0,0-9.75,20.44l23.34,148A1006.06,1006.06,0,0,0,364.3,508.88l-148-23.34a20,20,0,0,0-20.44,9.75L109.6,644.71a20,20,0,0,0,1.77,22.57l94,116.28a993.11,993.11,0,0,0-52.86,197.77L12.82,1035.07A20,20,0,0,0,0,1053.74v172.52a20,20,0,0,0,12.82,18.67l139.72,53.74a993.11,993.11,0,0,0,52.86,197.77l-94,116.28a20,20,0,0,0-1.77,22.57l86.26,149.42a20,20,0,0,0,20.44,9.75l148-23.34A1006.06,1006.06,0,0,0,508.88,1915.7l-23.34,148a20,20,0,0,0,9.75,20.44l149.42,86.26a20,20,0,0,0,22.57-1.77l116.28-94a993.11,993.11,0,0,0,197.77,52.86l53.74,139.72a20,20,0,0,0,18.67,12.82h172.52a20,20,0,0,0,18.67-12.82l53.74-139.72a992.93,992.93,0,0,0,197.77-52.86l116.28,94a20,20,0,0,0,22.57,1.77l149.42-86.26a20,20,0,0,0,9.75-20.44l-23.34-148a1006.06,1006.06,0,0,0,144.58-144.58l148,23.34a20,20,0,0,0,20.44-9.75l86.26-149.42a20,20,0,0,0-1.77-22.57l-94-116.28a993.11,993.11,0,0,0,52.86-197.77l139.72-53.74a20,20,0,0,0,12.82-18.67V1053.74A20,20,0,0,0,2267.18,1035.07Z"/>
</svg>
